<svg width="24" height="24" viewBox="0 0 24 24" fill="none" xmlns="http://www.w3.org/2000/svg">
<path d="M17.692 11.124C17.5879 11.0743 17.4829 11.0266 17.377 10.981C17.192 7.567 15.327 5.613 12.195 5.593H12.153C10.28 5.593 8.722 6.393 7.763 7.848L9.485 9.029C10.201 7.942 11.325 7.711 12.154 7.711H12.182C13.213 7.717 13.992 8.017 14.495 8.601C14.862 9.027 15.107 9.616 15.228 10.358C14.2498 10.1994 13.2569 10.1514 12.268 10.215C9.291 10.387 7.376 12.124 7.505 14.537C7.57 15.76 8.18 16.814 9.222 17.501C10.102 18.083 11.237 18.367 12.416 18.303C13.974 18.218 15.196 17.623 16.048 16.537C16.695 15.712 17.104 14.643 17.285 13.296C18.027 13.744 18.577 14.333 18.881 15.041C19.397 16.246 19.427 18.225 17.813 19.838C16.398 21.252 14.697 21.863 12.127 21.882C9.276 21.862 7.119 20.947 5.717 19.165C4.404 17.495 3.726 15.085 3.701 12C3.726 8.915 4.404 6.504 5.717 4.835C7.119 3.053 9.275 2.139 12.127 2.118C14.998 2.138 17.192 3.058 18.648 4.848C19.362 5.727 19.9 6.831 20.255 8.118L22.273 7.58C21.843 5.995 21.166 4.63 20.246 3.497C18.38 1.2 15.65 0.024 12.134 0H12.12C8.61 0.024 5.912 1.205 4.099 3.51C2.485 5.56 1.653 8.414 1.625 11.992V12.008C1.653 15.586 2.485 18.439 4.099 20.49C5.912 22.795 8.61 23.976 12.119 24H12.134C15.254 23.978 17.453 23.162 19.264 21.351C21.635 18.983 21.564 16.015 20.782 14.193C20.222 12.886 19.153 11.826 17.692 11.124ZM12.305 16.187C11 16.261 9.645 15.675 9.577 14.421C9.527 13.491 10.239 12.452 12.385 12.329C12.631 12.3143 12.8723 12.3073 13.109 12.308C13.889 12.308 14.617 12.383 15.28 12.528C15.033 15.616 13.583 16.117 12.305 16.187Z" fill="white"/>
</svg>
